<svg xmlns="http://www.w3.org/2000/svg" viewBox="0 0 1200 1200" width="1200" height="1200" role="img" aria-label="Harness 전체 구조 한 장 요약">
  <defs>
    <linearGradient id="ovBg" x1="0" y1="0" x2="0" y2="1">
      <stop offset="0%" stop-color="#FCFAEE"/>
      <stop offset="100%" stop-color="#F2EAD8"/>
    </linearGradient>
    <linearGradient id="ovAccent" x1="0" y1="0" x2="1" y2="1">
      <stop offset="0%" stop-color="#8C6239"/>
      <stop offset="100%" stop-color="#C89B6A"/>
    </linearGradient>
    <linearGradient id="ovDark" x1="0" y1="0" x2="0" y2="1">
      <stop offset="0%" stop-color="#2A2421"/>
      <stop offset="100%" stop-color="#1A1208"/>
    </linearGradient>
    <radialGradient id="ovProj" cx="0.4" cy="0.4" r="0.7">
      <stop offset="0%" stop-color="#C89B6A"/>
      <stop offset="100%" stop-color="#6B4A2A"/>
    </radialGradient>
    <radialGradient id="ovLog" cx="0.4" cy="0.4" r="0.7">
      <stop offset="0%" stop-color="#E8C49A"/>
      <stop offset="100%" stop-color="#B8895C"/>
    </radialGradient>
    <radialGradient id="ovCps" cx="0.4" cy="0.4" r="0.7">
      <stop offset="0%" stop-color="#9FBFE0"/>
      <stop offset="100%" stop-color="#5085C8"/>
    </radialGradient>
    <radialGradient id="ovPrd" cx="0.4" cy="0.4" r="0.7">
      <stop offset="0%" stop-color="#A8D4AB"/>
      <stop offset="100%" stop-color="#5BA160"/>
    </radialGradient>
    <radialGradient id="ovSpack" cx="0.4" cy="0.4" r="0.7">
      <stop offset="0%" stop-color="#F4B8A5"/>
      <stop offset="100%" stop-color="#D87A5E"/>
    </radialGradient>
    <radialGradient id="ovDdd" cx="0.4" cy="0.4" r="0.7">
      <stop offset="0%" stop-color="#D4A8E0"/>
      <stop offset="100%" stop-color="#9460B8"/>
    </radialGradient>
    <radialGradient id="ovArch" cx="0.4" cy="0.4" r="0.7">
      <stop offset="0%" stop-color="#F0CC8A"/>
      <stop offset="100%" stop-color="#C77F4A"/>
    </radialGradient>
    <radialGradient id="ovRules" cx="0.4" cy="0.4" r="0.7">
      <stop offset="0%" stop-color="#A0D4D0"/>
      <stop offset="100%" stop-color="#3FA39A"/>
    </radialGradient>
    <filter id="ovShadow" x="-30%" y="-30%" width="160%" height="160%">
      <feDropShadow dx="0" dy="6" stdDeviation="10" flood-color="#8C6239" flood-opacity="0.18"/>
    </filter>
    <filter id="ovNodeShadow" x="-50%" y="-50%" width="200%" height="200%">
      <feDropShadow dx="0" dy="3" stdDeviation="5" flood-color="#2A2421" flood-opacity="0.22"/>
    </filter>
    <marker id="ovArrowDark" viewBox="0 0 10 10" refX="9" refY="5" markerWidth="6" markerHeight="6" orient="auto">
      <path d="M0,0 L10,5 L0,10 Z" fill="#2A2421"/>
    </marker>
    <marker id="ovArrowAcc" viewBox="0 0 10 10" refX="9" refY="5" markerWidth="6" markerHeight="6" orient="auto">
      <path d="M0,0 L10,5 L0,10 Z" fill="#8C6239"/>
    </marker>
    <marker id="ovArrowMute" viewBox="0 0 10 10" refX="9" refY="5" markerWidth="6" markerHeight="6" orient="auto">
      <path d="M0,0 L10,5 L0,10 Z" fill="#8A817C"/>
    </marker>
  </defs>

  <rect width="1200" height="1200" fill="url(#ovBg)"/>

  <!-- ============== TITLE ============== -->
  <g transform="translate(60,40)">
    <rect width="80" height="28" rx="14" fill="url(#ovAccent)"/>
    <text x="40" y="19" text-anchor="middle" font-family="IBM Plex Mono, monospace" font-size="11" font-weight="800" fill="#FFFFFF" letter-spacing="2">OVERVIEW</text>
  </g>
  <text x="60" y="106" font-family="Outfit, Arial, sans-serif" font-size="38" font-weight="900" fill="#2A2421" letter-spacing="-1.4">Harness 전체 구조</text>
  <text x="60" y="134" font-family="Pretendard, Arial, sans-serif" font-size="14" fill="#8A817C">사용자 여정 · 시스템 아키텍처 · 데이터 그래프 — 한 장 요약</text>

  <!-- ============================================================== -->
  <!-- SECTION 1: USER JOURNEY (top)                                  -->
  <!-- ============================================================== -->
  <g transform="translate(60,170)">
    <text x="0" y="20" font-family="IBM Plex Mono, monospace" font-size="11" font-weight="800" fill="#8C6239" letter-spacing="3">① USER JOURNEY</text>
    <text x="0" y="44" font-family="Outfit, Arial, sans-serif" font-size="20" font-weight="900" fill="#2A2421">사용자가 보는 화면 흐름</text>
  </g>

  <!-- 7 mini journey cards -->
  <g transform="translate(60,240)">
    <!-- card factory: 7 boxes, 145px wide each, 12px gap -->
    <!-- 1. Login -->
    <g transform="translate(0,0)" filter="url(#ovShadow)">
      <rect width="145" height="110" rx="12" fill="#FFFFFF" stroke="#8C6239" stroke-opacity="0.2"/>
      <rect x="0" y="0" width="60" height="110" rx="12" fill="url(#ovDark)"/>
      <rect x="48" y="0" width="12" height="110" fill="url(#ovDark)"/>
      <rect x="8" y="10" width="10" height="10" rx="3" fill="url(#ovAccent)"/>
      <text x="22" y="19" font-family="Outfit, Arial, sans-serif" font-size="7" font-weight="900" fill="#FFFFFF">Harness</text>
      <text x="8" y="44" font-family="Outfit, Arial, sans-serif" font-size="8" font-weight="900" fill="#FFFFFF">AI System</text>
      <text x="8" y="58" font-family="Outfit, Arial, sans-serif" font-size="8" font-weight="900" fill="#C89B6A">Design</text>
      <rect x="68" y="14" width="68" height="10" rx="3" fill="#F7F5EB"/>
      <rect x="68" y="28" width="68" height="10" rx="3" fill="#F7F5EB"/>
      <rect x="68" y="44" width="68" height="12" rx="4" fill="url(#ovAccent)"/>
      <text x="102" y="53" text-anchor="middle" font-family="Outfit, Arial, sans-serif" font-size="6" font-weight="800" fill="#FFFFFF">로그인 →</text>
      <text x="0" y="128" font-family="Outfit, Arial, sans-serif" font-size="11" font-weight="900" fill="#2A2421">Login</text>
    </g>

    <!-- 2. Project -->
    <g transform="translate(157,0)" filter="url(#ovShadow)">
      <rect width="145" height="110" rx="12" fill="#FFFFFF" stroke="#8C6239" stroke-opacity="0.2"/>
      <rect x="0" y="0" width="145" height="20" rx="12" fill="#F7F5EB"/>
      <rect x="0" y="10" width="145" height="10" fill="#F7F5EB"/>
      <text x="10" y="14" font-family="Outfit, Arial, sans-serif" font-size="7" font-weight="900" fill="#2A2421">Dashboard</text>
      <rect x="8" y="28" width="129" height="14" rx="4" fill="#F7F5EB" stroke="#8C6239" stroke-opacity="0.2"/>
      <text x="14" y="38" font-family="Pretendard, Arial, sans-serif" font-size="6" fill="#8A817C">🔍 프로젝트 검색</text>
      <rect x="8" y="46" width="129" height="14" rx="4" fill="url(#ovAccent)"/>
      <text x="14" y="56" font-family="Outfit, Arial, sans-serif" font-size="7" font-weight="800" fill="#FFFFFF">harness</text>
      <rect x="8" y="64" width="129" height="14" rx="4" fill="#F7F5EB"/>
      <text x="14" y="74" font-family="Outfit, Arial, sans-serif" font-size="7" font-weight="700" fill="#2A2421">demo-project</text>
      <rect x="8" y="82" width="129" height="14" rx="4" fill="#F7F5EB"/>
      <text x="14" y="92" font-family="Outfit, Arial, sans-serif" font-size="7" font-weight="700" fill="#2A2421">esd-system</text>
      <text x="0" y="128" font-family="Outfit, Arial, sans-serif" font-size="11" font-weight="900" fill="#2A2421">Project</text>
    </g>

    <!-- 3. Plan -->
    <g transform="translate(314,0)" filter="url(#ovShadow)">
      <rect width="145" height="110" rx="12" fill="#FFFFFF" stroke="#8C6239" stroke-opacity="0.2"/>
      <rect x="0" y="0" width="145" height="18" rx="12" fill="#F7F5EB"/>
      <rect x="0" y="9" width="145" height="9" fill="#F7F5EB"/>
      <rect x="6" y="3" width="22" height="12" rx="6" fill="url(#ovAccent)"/>
      <text x="17" y="11" text-anchor="middle" font-family="Outfit, Arial, sans-serif" font-size="6" font-weight="800" fill="#FFFFFF">01</text>
      <rect x="8" y="26" width="129" height="22" rx="5" fill="#F2EAD8"/>
      <text x="14" y="38" font-family="Outfit, Arial, sans-serif" font-size="7" font-weight="800" fill="#8C6239">📄 Meeting Log v1.2</text>
      <rect x="8" y="52" width="129" height="14" rx="4" fill="#F7F5EB"/>
      <text x="14" y="62" font-family="Outfit, Arial, sans-serif" font-size="7" font-weight="700" fill="#2A2421">CPS · 핵심 문제</text>
      <rect x="8" y="70" width="129" height="14" rx="4" fill="#F7F5EB"/>
      <text x="14" y="80" font-family="Outfit, Arial, sans-serif" font-size="7" font-weight="700" fill="#2A2421">PRD · Epic 12</text>
      <rect x="8" y="88" width="129" height="14" rx="4" fill="#F7F5EB"/>
      <text x="14" y="98" font-family="Outfit, Arial, sans-serif" font-size="7" font-weight="700" fill="#2A2421">Rule · 23개</text>
      <text x="0" y="128" font-family="Outfit, Arial, sans-serif" font-size="11" font-weight="900" fill="#2A2421">Plan</text>
    </g>

    <!-- 4. Design -->
    <g transform="translate(471,0)" filter="url(#ovShadow)">
      <rect width="145" height="110" rx="12" fill="#FFFFFF" stroke="#8C6239" stroke-opacity="0.2"/>
      <rect x="0" y="0" width="145" height="18" rx="12" fill="#F7F5EB"/>
      <rect x="0" y="9" width="145" height="9" fill="#F7F5EB"/>
      <rect x="34" y="3" width="22" height="12" rx="6" fill="url(#ovAccent)"/>
      <text x="45" y="11" text-anchor="middle" font-family="Outfit, Arial, sans-serif" font-size="6" font-weight="800" fill="#FFFFFF">02</text>
      <!-- mini graph -->
      <circle cx="40" cy="50" r="9" fill="url(#ovAccent)"/>
      <circle cx="80" cy="46" r="7" fill="#5BA160"/>
      <circle cx="105" cy="68" r="7" fill="#5085C8"/>
      <circle cx="60" cy="82" r="7" fill="#D87A5E"/>
      <line x1="40" y1="50" x2="80" y2="46" stroke="#8A817C" stroke-width="1"/>
      <line x1="40" y1="50" x2="60" y2="82" stroke="#8A817C" stroke-width="1"/>
      <line x1="80" y1="46" x2="105" y2="68" stroke="#8A817C" stroke-width="1"/>
      <line x1="60" y1="82" x2="105" y2="68" stroke="#8A817C" stroke-width="1"/>
      <text x="125" y="50" font-family="IBM Plex Mono, monospace" font-size="6" font-weight="800" fill="#5BA160">SP</text>
      <text x="125" y="68" font-family="IBM Plex Mono, monospace" font-size="6" font-weight="800" fill="#5085C8">DD</text>
      <text x="125" y="86" font-family="IBM Plex Mono, monospace" font-size="6" font-weight="800" fill="#D87A5E">AR</text>
      <text x="0" y="128" font-family="Outfit, Arial, sans-serif" font-size="11" font-weight="900" fill="#2A2421">Design</text>
    </g>

    <!-- 5. Code -->
    <g transform="translate(628,0)" filter="url(#ovShadow)">
      <rect width="145" height="110" rx="12" fill="#FFFFFF" stroke="#8C6239" stroke-opacity="0.2"/>
      <rect x="0" y="0" width="145" height="18" rx="12" fill="#F7F5EB"/>
      <rect x="0" y="9" width="145" height="9" fill="#F7F5EB"/>
      <rect x="62" y="3" width="22" height="12" rx="6" fill="url(#ovAccent)"/>
      <text x="73" y="11" text-anchor="middle" font-family="Outfit, Arial, sans-serif" font-size="6" font-weight="800" fill="#FFFFFF">03</text>
      <rect x="8" y="24" width="129" height="80" rx="4" fill="#2A2421"/>
      <circle cx="14" cy="30" r="1.6" fill="#FF5F57"/>
      <circle cx="20" cy="30" r="1.6" fill="#FEBC2E"/>
      <circle cx="26" cy="30" r="1.6" fill="#28C840"/>
      <text x="72" y="32" text-anchor="middle" font-family="IBM Plex Mono, monospace" font-size="5" fill="#C89B6A">vibe.md</text>
      <g font-family="IBM Plex Mono, monospace" font-size="6">
        <text x="12" y="46" fill="#8A817C"># Setup</text>
        <text x="12" y="58" fill="#FCFAEE">pnpm install</text>
        <text x="12" y="70" fill="#8A817C"># Domain</text>
        <text x="12" y="82" fill="#C89B6A">class</text>
        <text x="32" y="82" fill="#FCFAEE">User</text>
        <text x="12" y="94" fill="#8A817C"># API</text>
      </g>
      <text x="0" y="128" font-family="Outfit, Arial, sans-serif" font-size="11" font-weight="900" fill="#2A2421">Code</text>
    </g>

    <!-- 6. Lint -->
    <g transform="translate(785,0)" filter="url(#ovShadow)">
      <rect width="145" height="110" rx="12" fill="#FFFFFF" stroke="#8C6239" stroke-opacity="0.2"/>
      <rect x="0" y="0" width="145" height="18" rx="12" fill="#F7F5EB"/>
      <rect x="0" y="9" width="145" height="9" fill="#F7F5EB"/>
      <rect x="90" y="3" width="22" height="12" rx="6" fill="url(#ovAccent)"/>
      <text x="101" y="11" text-anchor="middle" font-family="Outfit, Arial, sans-serif" font-size="6" font-weight="800" fill="#FFFFFF">04</text>
      <g transform="translate(40,60)">
        <circle cx="0" cy="0" r="22" fill="none" stroke="#F2EAD8" stroke-width="5"/>
        <circle cx="0" cy="0" r="22" fill="none" stroke="url(#ovAccent)" stroke-width="5" stroke-linecap="round"
                stroke-dasharray="120 138" transform="rotate(-90)"/>
        <text x="0" y="3" text-anchor="middle" font-family="Outfit, Arial, sans-serif" font-size="14" font-weight="900" fill="#2A2421">87</text>
      </g>
      <g font-family="IBM Plex Mono, monospace" font-size="6" font-weight="800" fill="#2A2421">
        <text x="76" y="42">SPACK</text>
        <rect x="76" y="46" width="60" height="3" rx="1.5" fill="#F2EAD8"/>
        <rect x="76" y="46" width="55" height="3" rx="1.5" fill="url(#ovAccent)"/>
        <text x="76" y="60">DDD</text>
        <rect x="76" y="64" width="60" height="3" rx="1.5" fill="#F2EAD8"/>
        <rect x="76" y="64" width="51" height="3" rx="1.5" fill="url(#ovAccent)"/>
        <text x="76" y="78">Arch</text>
        <rect x="76" y="82" width="60" height="3" rx="1.5" fill="#F2EAD8"/>
        <rect x="76" y="82" width="47" height="3" rx="1.5" fill="url(#ovAccent)"/>
      </g>
      <text x="0" y="128" font-family="Outfit, Arial, sans-serif" font-size="11" font-weight="900" fill="#2A2421">Lint</text>
    </g>

    <!-- 7. Deliverables -->
    <g transform="translate(942,0)" filter="url(#ovShadow)">
      <rect width="145" height="110" rx="12" fill="#FFFFFF" stroke="#8C6239" stroke-opacity="0.2"/>
      <rect x="0" y="0" width="145" height="18" rx="12" fill="#F7F5EB"/>
      <rect x="0" y="9" width="145" height="9" fill="#F7F5EB"/>
      <rect x="118" y="3" width="22" height="12" rx="6" fill="url(#ovAccent)"/>
      <text x="129" y="11" text-anchor="middle" font-family="Outfit, Arial, sans-serif" font-size="6" font-weight="800" fill="#FFFFFF">05</text>
      <!-- repo cards mock -->
      <rect x="8" y="28" width="129" height="16" rx="4" fill="#F7F5EB" stroke="#8C6239" stroke-opacity="0.2"/>
      <circle cx="16" cy="36" r="3" fill="#8C6239"/>
      <text x="24" y="39" font-family="Outfit, Arial, sans-serif" font-size="6" font-weight="800" fill="#2A2421">Frontend Repo</text>
      <text x="118" y="39" font-family="IBM Plex Mono, monospace" font-size="5" font-weight="700" fill="#5BA160">87%</text>
      <rect x="8" y="46" width="129" height="16" rx="4" fill="#F7F5EB" stroke="#8C6239" stroke-opacity="0.2"/>
      <circle cx="16" cy="54" r="3" fill="#5BA160"/>
      <text x="24" y="57" font-family="Outfit, Arial, sans-serif" font-size="6" font-weight="800" fill="#2A2421">Backend Repo</text>
      <text x="118" y="57" font-family="IBM Plex Mono, monospace" font-size="5" font-weight="700" fill="#5BA160">82%</text>
      <rect x="8" y="64" width="129" height="16" rx="4" fill="#F7F5EB" stroke="#8C6239" stroke-opacity="0.2"/>
      <circle cx="16" cy="72" r="3" fill="#5085C8"/>
      <text x="24" y="75" font-family="Outfit, Arial, sans-serif" font-size="6" font-weight="800" fill="#2A2421">Database Repo</text>
      <text x="118" y="75" font-family="IBM Plex Mono, monospace" font-size="5" font-weight="700" fill="#8A817C">—</text>
      <rect x="8" y="84" width="129" height="14" rx="4" fill="url(#ovAccent)"/>
      <text x="72" y="93" text-anchor="middle" font-family="Outfit, Arial, sans-serif" font-size="6" font-weight="800" fill="#FFFFFF">📥 인수인계 ZIP</text>
      <text x="0" y="128" font-family="Outfit, Arial, sans-serif" font-size="11" font-weight="900" fill="#2A2421">Deliverables</text>
    </g>

    <!-- arrows between cards (right-pointing) -->
    <g fill="#8C6239">
      <polygon points="147,49 147,65 156,57"/>
      <polygon points="304,49 304,65 313,57"/>
      <polygon points="461,49 461,65 470,57"/>
      <polygon points="618,49 618,65 627,57"/>
      <polygon points="775,49 775,65 784,57"/>
      <polygon points="932,49 932,65 941,57"/>
    </g>
  </g>

  <!-- divider -->
  <line x1="60" y1="430" x2="1140" y2="430" stroke="#8C6239" stroke-opacity="0.18" stroke-dasharray="6 6"/>

  <!-- ============================================================== -->
  <!-- SECTION 2: ARCHITECTURE (middle)                               -->
  <!-- ============================================================== -->
  <g transform="translate(60,460)">
    <text x="0" y="20" font-family="IBM Plex Mono, monospace" font-size="11" font-weight="800" fill="#8C6239" letter-spacing="3">② SYSTEM ARCHITECTURE</text>
    <text x="0" y="44" font-family="Outfit, Arial, sans-serif" font-size="20" font-weight="900" fill="#2A2421">데이터가 흐르는 경로</text>
  </g>

  <!-- Browser -->
  <g transform="translate(60,540)" filter="url(#ovShadow)">
    <rect width="200" height="160" rx="18" fill="#FFFFFF" stroke="#8C6239" stroke-opacity="0.2"/>
    <rect x="0" y="0" width="200" height="32" rx="18" fill="url(#ovDark)"/>
    <rect x="0" y="16" width="200" height="16" fill="url(#ovDark)"/>
    <circle cx="16" cy="16" r="4" fill="#FF5F57"/>
    <circle cx="28" cy="16" r="4" fill="#FEBC2E"/>
    <circle cx="40" cy="16" r="4" fill="#28C840"/>
    <text x="100" y="20" text-anchor="middle" font-family="IBM Plex Mono, monospace" font-size="9" font-weight="700" fill="#C89B6A">harness.app</text>
    <text x="16" y="58" font-family="IBM Plex Mono, monospace" font-size="9" font-weight="800" fill="#8C6239" letter-spacing="2">CLIENT</text>
    <text x="16" y="82" font-family="Outfit, Arial, sans-serif" font-size="18" font-weight="900" fill="#2A2421">Browser</text>
    <rect x="16" y="96" width="168" height="20" rx="6" fill="#F7F5EB"/>
    <text x="26" y="110" font-family="Pretendard, Arial, sans-serif" font-size="10" font-weight="600" fill="#2A2421">⚡ Vue 3 + Vuetify</text>
    <rect x="16" y="120" width="168" height="20" rx="6" fill="#F7F5EB"/>
    <text x="26" y="134" font-family="Pretendard, Arial, sans-serif" font-size="10" font-weight="600" fill="#2A2421">🔌 axios · Pinia</text>
  </g>

  <!-- n8n -->
  <g transform="translate(380,540)" filter="url(#ovShadow)">
    <rect width="240" height="160" rx="18" fill="url(#ovDark)"/>
    <rect x="0" y="0" width="240" height="32" rx="18" fill="#1A1208"/>
    <rect x="0" y="16" width="240" height="16" fill="#1A1208"/>
    <text x="120" y="20" text-anchor="middle" font-family="IBM Plex Mono, monospace" font-size="9" font-weight="700" fill="#C89B6A">cloudflare-tunnel.dev</text>
    <text x="16" y="58" font-family="IBM Plex Mono, monospace" font-size="9" font-weight="800" fill="#C89B6A" letter-spacing="2">ORCHESTRATOR</text>
    <text x="16" y="82" font-family="Outfit, Arial, sans-serif" font-size="18" font-weight="900" fill="#FFFFFF">n8n Workflow</text>
    <rect x="16" y="96" width="208" height="18" rx="5" fill="#3D2E1E"/>
    <text x="26" y="108" font-family="IBM Plex Mono, monospace" font-size="9" fill="#FCFAEE">POST /webhook/createCps</text>
    <rect x="16" y="118" width="208" height="18" rx="5" fill="#3D2E1E"/>
    <text x="26" y="130" font-family="IBM Plex Mono, monospace" font-size="9" fill="#FCFAEE">POST /webhook/runLint</text>
    <rect x="16" y="140" width="208" height="14" rx="5" fill="#3D2E1E"/>
    <text x="26" y="151" font-family="IBM Plex Mono, monospace" font-size="8" fill="#8A817C">+ 10 more webhooks…</text>
  </g>

  <!-- Gemini -->
  <g transform="translate(740,540)" filter="url(#ovShadow)">
    <rect width="180" height="74" rx="18" fill="#FFFFFF" stroke="#8C6239" stroke-opacity="0.2"/>
    <rect x="14" y="14" width="46" height="46" rx="12" fill="url(#ovAccent)"/>
    <text x="37" y="44" text-anchor="middle" font-family="Outfit, Arial, sans-serif" font-size="16" font-weight="900" fill="#FFFFFF">AI</text>
    <text x="74" y="32" font-family="IBM Plex Mono, monospace" font-size="9" font-weight="800" fill="#8C6239" letter-spacing="2">REASONING</text>
    <text x="74" y="52" font-family="Outfit, Arial, sans-serif" font-size="14" font-weight="900" fill="#2A2421">Google Gemini</text>
  </g>

  <!-- Neo4j -->
  <g transform="translate(740,626)" filter="url(#ovShadow)">
    <rect width="180" height="74" rx="18" fill="#FFFFFF" stroke="#8C6239" stroke-opacity="0.2"/>
    <g transform="translate(14,14)">
      <rect width="46" height="46" rx="12" fill="url(#ovAccent)"/>
      <g transform="translate(11,9)" stroke="#FFFFFF" stroke-width="2" fill="none" stroke-linecap="round" stroke-linejoin="round">
        <ellipse cx="12" cy="5" rx="10" ry="3"/>
        <path d="M2 5 L2 23 C2 25 7 27 12 27 C17 27 22 25 22 23 L22 5"/>
        <path d="M2 14 C2 16 7 18 12 18 C17 18 22 16 22 14"/>
      </g>
    </g>
    <text x="74" y="32" font-family="IBM Plex Mono, monospace" font-size="9" font-weight="800" fill="#8C6239" letter-spacing="2">STORAGE</text>
    <text x="74" y="52" font-family="Outfit, Arial, sans-serif" font-size="14" font-weight="900" fill="#2A2421">Neo4j Graph</text>
  </g>

  <!-- Tag for Section 3 anchor (Data Graph) -->
  <g transform="translate(940,540)" filter="url(#ovShadow)">
    <rect width="200" height="160" rx="18" fill="#FFFFFF" stroke="#8C6239" stroke-opacity="0.2" stroke-dasharray="4 4"/>
    <text x="100" y="34" text-anchor="middle" font-family="IBM Plex Mono, monospace" font-size="9" font-weight="800" fill="#8C6239" letter-spacing="2">PERSISTED IN</text>
    <text x="100" y="58" text-anchor="middle" font-family="Outfit, Arial, sans-serif" font-size="15" font-weight="900" fill="#2A2421">Graph Below ↓</text>
    <text x="100" y="82" text-anchor="middle" font-family="Pretendard, Arial, sans-serif" font-size="11" fill="#8A817C">모든 산출물은 노드로</text>
    <text x="100" y="100" text-anchor="middle" font-family="Pretendard, Arial, sans-serif" font-size="11" fill="#8A817C">관계로 영속화됩니다</text>
    <g transform="translate(60,118)">
      <circle cx="0" cy="14" r="10" fill="url(#ovProj)"/>
      <circle cx="24" cy="14" r="8" fill="url(#ovLog)"/>
      <circle cx="46" cy="14" r="8" fill="url(#ovCps)"/>
      <circle cx="68" cy="14" r="8" fill="url(#ovPrd)"/>
      <line x1="10" y1="14" x2="16" y2="14" stroke="#8A817C" stroke-width="1.5"/>
      <line x1="32" y1="14" x2="38" y2="14" stroke="#8A817C" stroke-width="1.5"/>
      <line x1="54" y1="14" x2="60" y2="14" stroke="#8A817C" stroke-width="1.5"/>
    </g>
  </g>

  <!-- arrows between architecture nodes -->
  <!-- Browser → n8n -->
  <line x1="260" y1="608" x2="380" y2="608" stroke="#2A2421" stroke-width="2" marker-end="url(#ovArrowDark)"/>
  <text x="320" y="600" text-anchor="middle" font-family="IBM Plex Mono, monospace" font-size="9" font-weight="700" fill="#2A2421">HTTP</text>
  <line x1="380" y1="638" x2="260" y2="638" stroke="#8C6239" stroke-width="2" marker-end="url(#ovArrowAcc)"/>
  <text x="320" y="654" text-anchor="middle" font-family="IBM Plex Mono, monospace" font-size="9" font-weight="700" fill="#8C6239">JSON</text>

  <!-- n8n ↔ Gemini -->
  <line x1="620" y1="588" x2="740" y2="578" stroke="#2A2421" stroke-width="2" marker-end="url(#ovArrowDark)"/>
  <text x="680" y="572" text-anchor="middle" font-family="IBM Plex Mono, monospace" font-size="9" font-weight="700" fill="#2A2421">PROMPT</text>

  <!-- n8n ↔ Neo4j -->
  <line x1="620" y1="660" x2="740" y2="660" stroke="#2A2421" stroke-width="2" marker-end="url(#ovArrowDark)"/>
  <text x="680" y="652" text-anchor="middle" font-family="IBM Plex Mono, monospace" font-size="9" font-weight="700" fill="#2A2421">CYPHER</text>

  <!-- Neo4j → Graph anchor -->
  <line x1="920" y1="660" x2="940" y2="660" stroke="#8A817C" stroke-width="2" stroke-dasharray="4 4" marker-end="url(#ovArrowMute)"/>

  <!-- divider -->
  <line x1="60" y1="750" x2="1140" y2="750" stroke="#8C6239" stroke-opacity="0.18" stroke-dasharray="6 6"/>

  <!-- ============================================================== -->
  <!-- SECTION 3: DATA GRAPH (bottom)                                 -->
  <!-- ============================================================== -->
  <g transform="translate(60,780)">
    <text x="0" y="20" font-family="IBM Plex Mono, monospace" font-size="11" font-weight="800" fill="#8C6239" letter-spacing="3">③ DATA GRAPH</text>
    <text x="0" y="44" font-family="Outfit, Arial, sans-serif" font-size="20" font-weight="900" fill="#2A2421">Neo4j에 영속화되는 노드와 관계</text>
  </g>

  <!-- Edges (drawn first) -->
  <g stroke="#8A817C" stroke-width="1.8" fill="none" font-family="IBM Plex Mono, monospace" font-size="10" font-weight="700">
    <!-- Project → MeetingLog x3 -->
    <line x1="200" y1="970" x2="370" y2="900" marker-end="url(#ovArrowMute)"/>
    <line x1="200" y1="990" x2="370" y2="990" marker-end="url(#ovArrowMute)"/>
    <line x1="200" y1="1010" x2="370" y2="1080" marker-end="url(#ovArrowMute)"/>
    <text x="260" y="930" fill="#8A817C">:HAS_LOG</text>
    <text x="260" y="985" fill="#8A817C">:HAS_LOG</text>
    <text x="260" y="1060" fill="#8A817C">:HAS_LOG</text>
  </g>
  <g stroke="#8C6239" stroke-width="2.2" fill="none" font-family="IBM Plex Mono, monospace" font-size="10" font-weight="700">
    <line x1="490" y1="990" x2="620" y2="990" marker-end="url(#ovArrowAcc)"/>
    <text x="530" y="980" fill="#8C6239">:GENERATES</text>
    <line x1="740" y1="990" x2="870" y2="990" marker-end="url(#ovArrowAcc)"/>
    <text x="780" y="980" fill="#8C6239">:DERIVES</text>
  </g>
  <g stroke="#8A817C" stroke-width="1.8" fill="none" font-family="IBM Plex Mono, monospace" font-size="10" font-weight="700">
    <line x1="953" y1="952" x2="1021" y2="873" marker-end="url(#ovArrowMute)"/>
    <line x1="968" y1="977" x2="1058" y2="952" marker-end="url(#ovArrowMute)"/>
    <line x1="967" y1="1006" x2="1058" y2="1036" marker-end="url(#ovArrowMute)"/>
    <line x1="953" y1="1028" x2="1021" y2="1107" marker-end="url(#ovArrowMute)"/>
    <text x="970" y="908" fill="#8A817C">:INFORMS</text>
    <text x="985" y="945" fill="#8A817C">:INFORMS</text>
    <text x="985" y="1040" fill="#8A817C">:INFORMS</text>
    <text x="970" y="1085" fill="#8A817C">:GENERATES</text>
  </g>

  <!-- Nodes -->
  <g transform="translate(140,990)" filter="url(#ovNodeShadow)">
    <circle cx="0" cy="0" r="56" fill="url(#ovProj)" stroke="#FFFFFF" stroke-width="3"/>
    <text x="0" y="-2" text-anchor="middle" font-family="Outfit, Arial, sans-serif" font-size="13" font-weight="900" fill="#FFFFFF">Project</text>
    <text x="0" y="14" text-anchor="middle" font-family="IBM Plex Mono, monospace" font-size="8" font-weight="700" fill="#FCFAEE" fill-opacity="0.85">harness</text>
  </g>
  <g transform="translate(410,880)" filter="url(#ovNodeShadow)">
    <circle cx="0" cy="0" r="38" fill="url(#ovLog)" stroke="#FFFFFF" stroke-width="3"/>
    <text x="0" y="-3" text-anchor="middle" font-family="Outfit, Arial, sans-serif" font-size="9" font-weight="900" fill="#FFFFFF">MeetingLog</text>
    <text x="0" y="11" text-anchor="middle" font-family="IBM Plex Mono, monospace" font-size="9" font-weight="800" fill="#FCFAEE">v1.0</text>
  </g>
  <g transform="translate(430,990)" filter="url(#ovNodeShadow)">
    <circle cx="0" cy="0" r="38" fill="url(#ovLog)" stroke="#FFFFFF" stroke-width="3"/>
    <text x="0" y="-3" text-anchor="middle" font-family="Outfit, Arial, sans-serif" font-size="9" font-weight="900" fill="#FFFFFF">MeetingLog</text>
    <text x="0" y="11" text-anchor="middle" font-family="IBM Plex Mono, monospace" font-size="9" font-weight="800" fill="#FCFAEE">v1.1</text>
  </g>
  <g transform="translate(410,1100)" filter="url(#ovNodeShadow)">
    <circle cx="0" cy="0" r="38" fill="url(#ovLog)" stroke="#FFFFFF" stroke-width="3"/>
    <text x="0" y="-3" text-anchor="middle" font-family="Outfit, Arial, sans-serif" font-size="9" font-weight="900" fill="#FFFFFF">MeetingLog</text>
    <text x="0" y="11" text-anchor="middle" font-family="IBM Plex Mono, monospace" font-size="9" font-weight="800" fill="#FCFAEE">v1.2</text>
  </g>
  <g transform="translate(680,990)" filter="url(#ovNodeShadow)">
    <circle cx="0" cy="0" r="44" fill="url(#ovCps)" stroke="#FFFFFF" stroke-width="3"/>
    <text x="0" y="3" text-anchor="middle" font-family="Outfit, Arial, sans-serif" font-size="16" font-weight="900" fill="#FFFFFF">CPS</text>
  </g>
  <g transform="translate(920,990)" filter="url(#ovNodeShadow)">
    <circle cx="0" cy="0" r="50" fill="url(#ovPrd)" stroke="#FFFFFF" stroke-width="3"/>
    <text x="0" y="3" text-anchor="middle" font-family="Outfit, Arial, sans-serif" font-size="16" font-weight="900" fill="#FFFFFF">PRD</text>
  </g>
  <g transform="translate(1050,840)" filter="url(#ovNodeShadow)">
    <circle cx="0" cy="0" r="36" fill="url(#ovSpack)" stroke="#FFFFFF" stroke-width="3"/>
    <text x="0" y="4" text-anchor="middle" font-family="Outfit, Arial, sans-serif" font-size="12" font-weight="900" fill="#FFFFFF">SPACK</text>
  </g>
  <g transform="translate(1100,940)" filter="url(#ovNodeShadow)">
    <circle cx="0" cy="0" r="36" fill="url(#ovDdd)" stroke="#FFFFFF" stroke-width="3"/>
    <text x="0" y="4" text-anchor="middle" font-family="Outfit, Arial, sans-serif" font-size="12" font-weight="900" fill="#FFFFFF">DDD</text>
  </g>
  <g transform="translate(1100,1050)" filter="url(#ovNodeShadow)">
    <circle cx="0" cy="0" r="36" fill="url(#ovArch)" stroke="#FFFFFF" stroke-width="3"/>
    <text x="0" y="-1" text-anchor="middle" font-family="Outfit, Arial, sans-serif" font-size="9" font-weight="900" fill="#FFFFFF">Architecture</text>
  </g>
  <g transform="translate(1050,1140)" filter="url(#ovNodeShadow)">
    <circle cx="0" cy="0" r="36" fill="url(#ovRules)" stroke="#FFFFFF" stroke-width="3"/>
    <text x="0" y="4" text-anchor="middle" font-family="Outfit, Arial, sans-serif" font-size="12" font-weight="900" fill="#FFFFFF">Rules</text>
  </g>
</svg>
