<svg xmlns="http://www.w3.org/2000/svg" viewBox="0 0 1200 600" width="1200" height="600" role="img" aria-label="사용자 여정">
  <defs>
    <linearGradient id="ujBg" x1="0" y1="0" x2="0" y2="1">
      <stop offset="0%" stop-color="#FCFAEE"/>
      <stop offset="100%" stop-color="#F2EAD8"/>
    </linearGradient>
    <linearGradient id="ujAccent" x1="0" y1="0" x2="1" y2="1">
      <stop offset="0%" stop-color="#8C6239"/>
      <stop offset="100%" stop-color="#C89B6A"/>
    </linearGradient>
    <linearGradient id="ujDark" x1="0" y1="0" x2="0" y2="1">
      <stop offset="0%" stop-color="#2A2421"/>
      <stop offset="100%" stop-color="#1A1208"/>
    </linearGradient>
    <filter id="ujShadow" x="-20%" y="-20%" width="140%" height="140%">
      <feDropShadow dx="0" dy="6" stdDeviation="10" flood-color="#8C6239" flood-opacity="0.18"/>
    </filter>
  </defs>

  <rect width="1200" height="600" fill="url(#ujBg)"/>

  <!-- Title -->
  <text x="60" y="50" font-family="Outfit, Arial, sans-serif" font-size="28" font-weight="900" fill="#2A2421" letter-spacing="-0.8">사용자 여정</text>
  <text x="60" y="74" font-family="Pretendard, Arial, sans-serif" font-size="13" fill="#8A817C">로그인 → 프로젝트 선택 → 5단계 탭을 거치는 화면 흐름</text>

  <!-- ============== Phase 1: Login ============== -->
  <g transform="translate(60,130)" filter="url(#ujShadow)">
    <rect width="180" height="220" rx="14" fill="#FFFFFF" stroke="#8C6239" stroke-opacity="0.2"/>
    <!-- Mock screen: dark left + cream right -->
    <rect x="0" y="0" width="80" height="220" rx="14" fill="url(#ujDark)"/>
    <rect x="68" y="0" width="12" height="220" fill="url(#ujDark)"/>
    <rect x="14" y="20" width="14" height="14" rx="4" fill="url(#ujAccent)"/>
    <text x="34" y="32" font-family="Outfit, Arial, sans-serif" font-size="9" font-weight="900" fill="#FFFFFF">Harness</text>
    <text x="14" y="76" font-family="Outfit, Arial, sans-serif" font-size="9" font-weight="900" fill="#FFFFFF">AI-Powered</text>
    <text x="14" y="90" font-family="Outfit, Arial, sans-serif" font-size="9" font-weight="900" fill="#C89B6A">System Design</text>

    <!-- form on right -->
    <text x="98" y="34" font-family="Outfit, Arial, sans-serif" font-size="11" font-weight="900" fill="#2A2421">로그인</text>
    <rect x="98" y="50" width="68" height="14" rx="3" fill="#F7F5EB" stroke="#8C6239" stroke-opacity="0.2"/>
    <text x="102" y="60" font-family="Pretendard, Arial, sans-serif" font-size="7" fill="#8A817C">아이디</text>
    <rect x="98" y="70" width="68" height="14" rx="3" fill="#F7F5EB" stroke="#8C6239" stroke-opacity="0.2"/>
    <text x="102" y="80" font-family="Pretendard, Arial, sans-serif" font-size="7" fill="#8A817C">●●●●</text>
    <rect x="98" y="92" width="68" height="16" rx="4" fill="url(#ujAccent)"/>
    <text x="132" y="103" text-anchor="middle" font-family="Outfit, Arial, sans-serif" font-size="8" font-weight="800" fill="#FFFFFF">로그인 →</text>
    <text x="98" y="200" font-family="IBM Plex Mono, monospace" font-size="7" fill="#8A817C">admin / oms!</text>

    <!-- step badge -->
    <g transform="translate(0,-26)">
      <rect width="60" height="20" rx="10" fill="url(#ujAccent)"/>
      <text x="30" y="14" text-anchor="middle" font-family="IBM Plex Mono, monospace" font-size="9" font-weight="800" fill="#FFFFFF" letter-spacing="1.5">STEP 1</text>
    </g>
    <text x="0" y="244" font-family="Outfit, Arial, sans-serif" font-size="13" font-weight="900" fill="#2A2421">Login</text>
    <text x="0" y="260" font-family="Pretendard, Arial, sans-serif" font-size="10" fill="#8A817C">관리자 계정으로 진입</text>
  </g>

  <!-- ============== Phase 2: Project Lookup ============== -->
  <g transform="translate(280,130)" filter="url(#ujShadow)">
    <rect width="180" height="220" rx="14" fill="#FFFFFF" stroke="#8C6239" stroke-opacity="0.2"/>
    <rect x="0" y="0" width="180" height="32" rx="14" fill="#F7F5EB"/>
    <rect x="0" y="14" width="180" height="18" fill="#F7F5EB"/>
    <text x="14" y="22" font-family="Outfit, Arial, sans-serif" font-size="10" font-weight="900" fill="#2A2421">Harness Dashboard</text>
    <!-- search bar -->
    <rect x="14" y="48" width="152" height="20" rx="6" fill="#F7F5EB" stroke="#8C6239" stroke-opacity="0.2"/>
    <text x="20" y="62" font-family="Pretendard, Arial, sans-serif" font-size="8" fill="#8A817C">🔍 프로젝트 검색</text>
    <!-- list -->
    <rect x="14" y="78" width="152" height="22" rx="6" fill="url(#ujAccent)"/>
    <text x="22" y="92" font-family="Outfit, Arial, sans-serif" font-size="9" font-weight="800" fill="#FFFFFF">harness</text>
    <rect x="14" y="106" width="152" height="22" rx="6" fill="#F7F5EB"/>
    <text x="22" y="120" font-family="Outfit, Arial, sans-serif" font-size="9" font-weight="700" fill="#2A2421">demo-project</text>
    <rect x="14" y="134" width="152" height="22" rx="6" fill="#F7F5EB"/>
    <text x="22" y="148" font-family="Outfit, Arial, sans-serif" font-size="9" font-weight="700" fill="#2A2421">esd-system</text>
    <rect x="14" y="162" width="152" height="22" rx="6" fill="#F7F5EB"/>
    <text x="22" y="176" font-family="Outfit, Arial, sans-serif" font-size="9" font-weight="700" fill="#2A2421">order-platform</text>

    <g transform="translate(0,-26)">
      <rect width="60" height="20" rx="10" fill="url(#ujAccent)"/>
      <text x="30" y="14" text-anchor="middle" font-family="IBM Plex Mono, monospace" font-size="9" font-weight="800" fill="#FFFFFF" letter-spacing="1.5">STEP 2</text>
    </g>
    <text x="0" y="244" font-family="Outfit, Arial, sans-serif" font-size="13" font-weight="900" fill="#2A2421">Project Lookup</text>
    <text x="0" y="260" font-family="Pretendard, Arial, sans-serif" font-size="10" fill="#8A817C">대상 프로젝트 선택</text>
  </g>

  <!-- ============== Phase 3-7: Five tabs (compact mockups) ============== -->
  <g font-family="Outfit, Arial, sans-serif">
    <!-- Plan -->
    <g transform="translate(500,130)" filter="url(#ujShadow)">
      <rect width="130" height="220" rx="14" fill="#FFFFFF" stroke="#8C6239" stroke-opacity="0.2"/>
      <!-- tab bar -->
      <rect x="0" y="0" width="130" height="22" fill="#F7F5EB" rx="14"/>
      <rect x="0" y="11" width="130" height="11" fill="#F7F5EB"/>
      <rect x="6" y="4" width="26" height="14" rx="7" fill="url(#ujAccent)"/>
      <text x="19" y="14" text-anchor="middle" font-size="7" font-weight="800" fill="#FFFFFF">01</text>
      <text x="38" y="14" font-size="7" font-weight="700" fill="#8A817C">02</text>
      <text x="56" y="14" font-size="7" font-weight="700" fill="#8A817C">03</text>
      <text x="74" y="14" font-size="7" font-weight="700" fill="#8A817C">04</text>
      <text x="92" y="14" font-size="7" font-weight="700" fill="#8A817C">05</text>
      <!-- content -->
      <rect x="10" y="32" width="110" height="38" rx="6" fill="#F2EAD8"/>
      <text x="16" y="46" font-size="8" font-weight="800" fill="#8C6239">📄 Meeting Log v1.2</text>
      <text x="16" y="60" font-family="IBM Plex Mono, monospace" font-size="7" fill="#8A817C">2026-05-09 업로드</text>
      <rect x="10" y="78" width="110" height="22" rx="6" fill="#F7F5EB"/>
      <text x="16" y="92" font-size="8" font-weight="700" fill="#2A2421">CPS · 핵심 문제</text>
      <rect x="10" y="106" width="110" height="22" rx="6" fill="#F7F5EB"/>
      <text x="16" y="120" font-size="8" font-weight="700" fill="#2A2421">PRD · Epic 12</text>
      <rect x="10" y="134" width="110" height="22" rx="6" fill="#F7F5EB"/>
      <text x="16" y="148" font-size="8" font-weight="700" fill="#2A2421">Rule · 23개 도출</text>
      <g transform="translate(0,-26)">
        <rect width="60" height="20" rx="10" fill="url(#ujAccent)"/>
        <text x="30" y="14" text-anchor="middle" font-family="IBM Plex Mono, monospace" font-size="9" font-weight="800" fill="#FFFFFF" letter-spacing="1.5">STEP 3</text>
      </g>
      <text x="0" y="244" font-size="13" font-weight="900" fill="#2A2421">Plan</text>
      <text x="0" y="260" font-family="Pretendard, Arial, sans-serif" font-size="10" fill="#8A817C">요구사항 추출</text>
    </g>

    <!-- Design -->
    <g transform="translate(640,130)" filter="url(#ujShadow)">
      <rect width="130" height="220" rx="14" fill="#FFFFFF" stroke="#8C6239" stroke-opacity="0.2"/>
      <rect x="0" y="0" width="130" height="22" fill="#F7F5EB" rx="14"/>
      <rect x="0" y="11" width="130" height="11" fill="#F7F5EB"/>
      <text x="14" y="14" font-size="7" font-weight="700" fill="#8A817C">01</text>
      <rect x="32" y="4" width="26" height="14" rx="7" fill="url(#ujAccent)"/>
      <text x="45" y="14" text-anchor="middle" font-size="7" font-weight="800" fill="#FFFFFF">02</text>
      <text x="64" y="14" font-size="7" font-weight="700" fill="#8A817C">03</text>
      <text x="82" y="14" font-size="7" font-weight="700" fill="#8A817C">04</text>
      <text x="100" y="14" font-size="7" font-weight="700" fill="#8A817C">05</text>
      <!-- 3 sub-tabs -->
      <rect x="10" y="32" width="32" height="16" rx="4" fill="url(#ujAccent)"/>
      <text x="26" y="44" text-anchor="middle" font-size="7" font-weight="800" fill="#FFFFFF">SPACK</text>
      <rect x="46" y="32" width="32" height="16" rx="4" fill="#F7F5EB"/>
      <text x="62" y="44" text-anchor="middle" font-size="7" font-weight="700" fill="#8A817C">DDD</text>
      <rect x="82" y="32" width="38" height="16" rx="4" fill="#F7F5EB"/>
      <text x="101" y="44" text-anchor="middle" font-size="7" font-weight="700" fill="#8A817C">Arch</text>
      <!-- mini graph -->
      <circle cx="40" cy="80" r="10" fill="url(#ujAccent)"/>
      <circle cx="80" cy="78" r="8" fill="#5BA160"/>
      <circle cx="100" cy="106" r="8" fill="#5085C8"/>
      <circle cx="60" cy="120" r="8" fill="#D87A5E"/>
      <line x1="40" y1="80" x2="80" y2="78" stroke="#8A817C" stroke-width="1.2"/>
      <line x1="40" y1="80" x2="60" y2="120" stroke="#8A817C" stroke-width="1.2"/>
      <line x1="80" y1="78" x2="100" y2="106" stroke="#8A817C" stroke-width="1.2"/>
      <line x1="60" y1="120" x2="100" y2="106" stroke="#8A817C" stroke-width="1.2"/>
      <rect x="10" y="148" width="110" height="20" rx="6" fill="#F7F5EB"/>
      <text x="16" y="161" font-size="7" font-weight="700" fill="#2A2421">📋 보안 · 성능 정책</text>
      <rect x="10" y="172" width="110" height="20" rx="6" fill="#F7F5EB"/>
      <text x="16" y="185" font-size="7" font-weight="700" fill="#2A2421">🌐 운영 환경 · TLS</text>
      <g transform="translate(0,-26)">
        <rect width="60" height="20" rx="10" fill="url(#ujAccent)"/>
        <text x="30" y="14" text-anchor="middle" font-family="IBM Plex Mono, monospace" font-size="9" font-weight="800" fill="#FFFFFF" letter-spacing="1.5">STEP 4</text>
      </g>
      <text x="0" y="244" font-size="13" font-weight="900" fill="#2A2421">Design</text>
      <text x="0" y="260" font-family="Pretendard, Arial, sans-serif" font-size="10" fill="#8A817C">시스템 설계</text>
    </g>

    <!-- Code -->
    <g transform="translate(780,130)" filter="url(#ujShadow)">
      <rect width="130" height="220" rx="14" fill="#FFFFFF" stroke="#8C6239" stroke-opacity="0.2"/>
      <rect x="0" y="0" width="130" height="22" fill="#F7F5EB" rx="14"/>
      <rect x="0" y="11" width="130" height="11" fill="#F7F5EB"/>
      <text x="14" y="14" font-size="7" font-weight="700" fill="#8A817C">01</text>
      <text x="32" y="14" font-size="7" font-weight="700" fill="#8A817C">02</text>
      <rect x="50" y="4" width="26" height="14" rx="7" fill="url(#ujAccent)"/>
      <text x="63" y="14" text-anchor="middle" font-size="7" font-weight="800" fill="#FFFFFF">03</text>
      <text x="82" y="14" font-size="7" font-weight="700" fill="#8A817C">04</text>
      <text x="100" y="14" font-size="7" font-weight="700" fill="#8A817C">05</text>
      <!-- code editor mock -->
      <rect x="10" y="30" width="110" height="160" rx="6" fill="#2A2421"/>
      <circle cx="18" cy="38" r="2" fill="#FF5F57"/>
      <circle cx="24" cy="38" r="2" fill="#FEBC2E"/>
      <circle cx="30" cy="38" r="2" fill="#28C840"/>
      <text x="60" y="41" text-anchor="middle" font-family="IBM Plex Mono, monospace" font-size="6" fill="#C89B6A">vibe.md</text>
      <g font-family="IBM Plex Mono, monospace" font-size="7">
        <text x="14" y="58" fill="#8A817C"># 1. Setup</text>
        <text x="14" y="72" fill="#FCFAEE">pnpm install</text>
        <text x="14" y="86" fill="#8A817C"># 2. Domain</text>
        <text x="14" y="100" fill="#C89B6A">class</text>
        <text x="38" y="100" fill="#FCFAEE">User</text>
        <text x="14" y="114" fill="#8A817C"># 3. API</text>
        <text x="14" y="128" fill="#C89B6A">POST</text>
        <text x="40" y="128" fill="#FCFAEE">/orders</text>
        <text x="14" y="142" fill="#8A817C"># 4. Test</text>
        <text x="14" y="156" fill="#FCFAEE">- [x] OK</text>
        <text x="14" y="170" fill="#FCFAEE">- [ ] 404</text>
      </g>
      <g transform="translate(0,-26)">
        <rect width="60" height="20" rx="10" fill="url(#ujAccent)"/>
        <text x="30" y="14" text-anchor="middle" font-family="IBM Plex Mono, monospace" font-size="9" font-weight="800" fill="#FFFFFF" letter-spacing="1.5">STEP 5</text>
      </g>
      <text x="0" y="244" font-size="13" font-weight="900" fill="#2A2421">Code</text>
      <text x="0" y="260" font-family="Pretendard, Arial, sans-serif" font-size="10" fill="#8A817C">Vibe Coding 가이드</text>
    </g>

    <!-- Lint -->
    <g transform="translate(920,130)" filter="url(#ujShadow)">
      <rect width="130" height="220" rx="14" fill="#FFFFFF" stroke="#8C6239" stroke-opacity="0.2"/>
      <rect x="0" y="0" width="130" height="22" fill="#F7F5EB" rx="14"/>
      <rect x="0" y="11" width="130" height="11" fill="#F7F5EB"/>
      <text x="14" y="14" font-size="7" font-weight="700" fill="#8A817C">01</text>
      <text x="32" y="14" font-size="7" font-weight="700" fill="#8A817C">02</text>
      <text x="50" y="14" font-size="7" font-weight="700" fill="#8A817C">03</text>
      <rect x="68" y="4" width="26" height="14" rx="7" fill="url(#ujAccent)"/>
      <text x="81" y="14" text-anchor="middle" font-size="7" font-weight="800" fill="#FFFFFF">04</text>
      <text x="100" y="14" font-size="7" font-weight="700" fill="#8A817C">05</text>
      <!-- score ring -->
      <g transform="translate(65,82)">
        <circle cx="0" cy="0" r="28" fill="none" stroke="#F2EAD8" stroke-width="6"/>
        <circle cx="0" cy="0" r="28" fill="none" stroke="url(#ujAccent)" stroke-width="6" stroke-linecap="round"
                stroke-dasharray="153 176" transform="rotate(-90)"/>
        <text x="0" y="3" text-anchor="middle" font-family="Outfit, Arial, sans-serif" font-size="16" font-weight="900" fill="#2A2421">87</text>
      </g>
      <!-- bars -->
      <g font-family="IBM Plex Mono, monospace" font-size="7">
        <text x="10" y="138" fill="#2A2421" font-weight="800">SPACK</text>
        <rect x="10" y="142" width="110" height="4" rx="2" fill="#F2EAD8"/>
        <rect x="10" y="142" width="100" height="4" rx="2" fill="url(#ujAccent)"/>
        <text x="10" y="158" fill="#2A2421" font-weight="800">DDD</text>
        <rect x="10" y="162" width="110" height="4" rx="2" fill="#F2EAD8"/>
        <rect x="10" y="162" width="92" height="4" rx="2" fill="url(#ujAccent)"/>
        <text x="10" y="178" fill="#2A2421" font-weight="800">Arch</text>
        <rect x="10" y="182" width="110" height="4" rx="2" fill="#F2EAD8"/>
        <rect x="10" y="182" width="86" height="4" rx="2" fill="url(#ujAccent)"/>
      </g>
      <g transform="translate(0,-26)">
        <rect width="60" height="20" rx="10" fill="url(#ujAccent)"/>
        <text x="30" y="14" text-anchor="middle" font-family="IBM Plex Mono, monospace" font-size="9" font-weight="800" fill="#FFFFFF" letter-spacing="1.5">STEP 6</text>
      </g>
      <text x="0" y="244" font-size="13" font-weight="900" fill="#2A2421">Lint</text>
      <text x="0" y="260" font-family="Pretendard, Arial, sans-serif" font-size="10" fill="#8A817C">규칙 준수율</text>
    </g>

    <!-- Deliverables -->
    <g transform="translate(1060,130)" filter="url(#ujShadow)">
      <rect width="130" height="220" rx="14" fill="#FFFFFF" stroke="#8C6239" stroke-opacity="0.2"/>
      <rect x="0" y="0" width="130" height="22" fill="#F7F5EB" rx="14"/>
      <rect x="0" y="11" width="130" height="11" fill="#F7F5EB"/>
      <text x="14" y="14" font-size="7" font-weight="700" fill="#8A817C">01</text>
      <text x="32" y="14" font-size="7" font-weight="700" fill="#8A817C">02</text>
      <text x="50" y="14" font-size="7" font-weight="700" fill="#8A817C">03</text>
      <text x="68" y="14" font-size="7" font-weight="700" fill="#8A817C">04</text>
      <rect x="86" y="4" width="26" height="14" rx="7" fill="url(#ujAccent)"/>
      <text x="99" y="14" text-anchor="middle" font-size="7" font-weight="800" fill="#FFFFFF">05</text>
      <!-- repo cards mock -->
      <rect x="10" y="32" width="110" height="22" rx="5" fill="#F7F5EB" stroke="#8C6239" stroke-opacity="0.2"/>
      <circle cx="20" cy="43" r="4" fill="#8C6239"/>
      <text x="30" y="46" font-size="7" font-weight="800" fill="#2A2421">Frontend</text>
      <text x="92" y="46" font-family="IBM Plex Mono, monospace" font-size="6" font-weight="700" fill="#5BA160">87%</text>
      <rect x="10" y="58" width="110" height="22" rx="5" fill="#F7F5EB" stroke="#8C6239" stroke-opacity="0.2"/>
      <circle cx="20" cy="69" r="4" fill="#5BA160"/>
      <text x="30" y="72" font-size="7" font-weight="800" fill="#2A2421">Backend</text>
      <text x="92" y="72" font-family="IBM Plex Mono, monospace" font-size="6" font-weight="700" fill="#5BA160">82%</text>
      <rect x="10" y="84" width="110" height="22" rx="5" fill="#F7F5EB" stroke="#8C6239" stroke-opacity="0.2"/>
      <circle cx="20" cy="95" r="4" fill="#5085C8"/>
      <text x="30" y="98" font-size="7" font-weight="800" fill="#2A2421">Database</text>
      <text x="92" y="98" font-family="IBM Plex Mono, monospace" font-size="6" font-weight="700" fill="#8A817C">—</text>
      <rect x="10" y="116" width="110" height="22" rx="6" fill="url(#ujAccent)"/>
      <text x="65" y="130" text-anchor="middle" font-size="8" font-weight="800" fill="#FFFFFF">📥 ZIP 다운로드</text>
      <rect x="10" y="144" width="110" height="20" rx="6" fill="#EFF7EE"/>
      <text x="16" y="157" font-size="8" font-weight="700" fill="#5BA160">✓ DEV 인수인계</text>
      <rect x="10" y="168" width="110" height="20" rx="6" fill="#F7F5EB"/>
      <text x="16" y="181" font-size="8" font-weight="700" fill="#2A2421">📋 PM 요약 리포트</text>
      <g transform="translate(0,-26)">
        <rect width="60" height="20" rx="10" fill="url(#ujAccent)"/>
        <text x="30" y="14" text-anchor="middle" font-family="IBM Plex Mono, monospace" font-size="9" font-weight="800" fill="#FFFFFF" letter-spacing="1.5">STEP 7</text>
      </g>
      <text x="0" y="244" font-size="13" font-weight="900" fill="#2A2421">Deliverables</text>
      <text x="0" y="260" font-family="Pretendard, Arial, sans-serif" font-size="10" fill="#8A817C">산출물 모음</text>
    </g>
  </g>

  <!-- ============== Right-pointing arrows between phases ============== -->
  <g fill="#8C6239">
    <polygon points="244,234 244,250 260,242"/>
    <polygon points="464,234 464,250 480,242"/>
    <polygon points="634,234 634,250 644,242"/>
    <polygon points="774,234 774,250 784,242"/>
    <polygon points="914,234 914,250 924,242"/>
    <polygon points="1054,234 1054,250 1064,242"/>
  </g>

  <!-- Bottom note -->
  <g transform="translate(60,420)">
    <rect width="1080" height="120" rx="16" fill="#FFFFFF" stroke="#8C6239" stroke-opacity="0.18"/>
    <text x="24" y="34" font-family="IBM Plex Mono, monospace" font-size="11" font-weight="800" fill="#8C6239" letter-spacing="2">USER STORY</text>
    <text x="24" y="64" font-family="Pretendard, Arial, sans-serif" font-size="14" font-weight="700" fill="#2A2421">
      “미팅을 마친 PO가 회의록을 업로드한다 — 8분 후, 같은 화면에서 검증된 코드 가이드와 인수인계용 산출물 ZIP이 나온다.”
    </text>
    <text x="24" y="92" font-family="Pretendard, Arial, sans-serif" font-size="12" fill="#8A817C">
      한 명의 사용자가 7단계를 거치는 동안, 모든 산출물이 같은 Project 노드 아래 그래프로 영속화됩니다.
    </text>
  </g>
</svg>
